<svg width="37" height="34" viewBox="0 0 37 34" fill="none" xmlns="http://www.w3.org/2000/svg">
<g clip-path="url(#clip0_1_23672)">
<path d="M0.276259 18.7775C0.361158 18.6544 5.87723 20.4561 6.00656 20.5426C6.1359 20.6292 6.60007 21.4454 6.51279 21.5971C6.42551 21.7488 2.34399 21.2914 1.55848 20.8714C0.750742 20.4418 -0.0284265 19.2206 0.276259 18.7775Z" fill="#C27614"/>
<path d="M0.27569 18.7774C0.228083 18.636 5.87666 20.4559 6.00599 20.5425C6.13533 20.629 6.27101 20.8212 6.18373 20.9728C6.09645 21.1245 2.24821 20.4218 1.47856 19.9684C0.789846 19.5658 0.428032 19.2268 0.27569 18.7774Z" fill="#F2920C"/>
<path d="M1.08252 20.9243C1.15155 20.791 6.84456 21.9113 6.98421 21.982C7.12386 22.0527 7.68245 22.8062 7.61421 22.9666C7.54597 23.127 3.43907 23.1714 2.60436 22.8475C1.75299 22.518 0.834171 21.4 1.08252 20.9243Z" fill="#C27614"/>
<path d="M1.08208 20.9246C1.01702 20.7896 6.84413 21.9116 6.98377 21.9822C7.12342 22.0529 7.28052 22.2268 7.21229 22.3872C7.14405 22.5476 3.23868 22.3173 2.41667 21.9608C1.6859 21.6448 1.28521 21.3494 1.08208 20.9246Z" fill="#F2920C"/>
<path d="M2.00303 22.8103C2.05937 22.6713 7.83172 23.2589 7.97692 23.3161C8.12213 23.3732 8.74895 24.072 8.69103 24.2379C8.63311 24.4039 4.55398 24.8287 3.69229 24.5841C2.81949 24.3348 1.8007 23.3065 2.00303 22.8103Z" fill="#C27614"/>
<path d="M2.00226 22.8106C1.92291 22.682 7.83095 23.2593 7.97615 23.3164C8.12135 23.3736 8.29353 23.5324 8.24116 23.6984C8.1888 23.8643 4.27787 23.9977 3.4265 23.719C2.66876 23.4713 2.24585 23.2148 2.00226 22.8106Z" fill="#F2920C"/>
<path d="M9.13617 22.2142C8.60059 22.1936 7.82697 22.1348 7.07319 22.0435H7.05256C6.48216 21.9814 5.91539 21.8894 5.35458 21.768L5.32601 21.7617C5.16256 21.7264 5.00306 21.6748 4.84994 21.6076C4.7952 21.5806 4.74203 21.5496 4.68729 21.5155L4.66983 21.5052L4.65634 21.4964C4.31826 21.2682 4.02665 20.9777 3.79703 20.6405C3.559 20.2967 3.42094 19.9449 3.46061 19.7004C3.46061 19.7004 3.46061 19.6956 3.46061 19.6932C3.46828 19.6444 3.48583 19.5976 3.51219 19.5558C3.51219 19.5495 3.5352 19.5471 3.56773 19.5495H3.58439C4.07792 19.6019 6.951 20.4229 8.42444 20.8692C8.43176 21.1044 8.49865 21.3339 8.61884 21.5361C8.74121 21.7593 8.89337 21.9647 9.0711 22.1468L9.07745 22.1523C9.0957 22.1745 9.11633 22.1944 9.13617 22.2142Z" fill="#C27614"/>
<path d="M8.62026 21.5372C8.00692 21.4641 7.16111 21.3299 6.40495 21.1751C5.99473 21.0917 5.6115 21.0012 5.30443 20.9123C5.11299 20.8618 4.92696 20.7927 4.74901 20.7058C4.15551 20.3811 3.79687 20.0928 3.60248 19.7411C3.60034 19.7381 3.59848 19.7349 3.59692 19.7316C3.56616 19.6738 3.53964 19.6138 3.51758 19.5521C3.51758 19.5434 3.53345 19.5418 3.57312 19.5458H3.58978C4.08172 19.614 6.9564 20.4287 8.42983 20.8686C8.43568 21.104 8.5012 21.3341 8.62026 21.5372Z" fill="#F2920C"/>
<path d="M11.6455 23.3405C11.6082 23.4493 9.8206 23.6335 8.3551 23.6716H8.24798C7.84687 23.6845 7.44536 23.6763 7.04511 23.647L6.96577 23.639C6.85498 23.629 6.74531 23.6091 6.63807 23.5795C6.31935 23.4705 6.02346 23.3036 5.76528 23.0872H5.76369C5.75673 23.0823 5.75011 23.077 5.74385 23.0713L5.73592 23.0634C5.48976 22.8684 5.27859 22.6329 5.11147 22.367C4.97738 22.1407 4.92263 21.9279 4.99007 21.7715C4.99007 21.7643 5.01308 21.7596 5.048 21.7564C5.14188 21.7521 5.23594 21.7534 5.32967 21.7604C5.58119 21.7731 5.9557 21.8048 6.3929 21.8477H6.41114H6.41591C7.20936 21.9271 8.21545 22.0407 9.07476 22.1455L9.08111 22.151C9.09936 22.1709 9.11919 22.1907 9.13903 22.2106C9.331 22.3995 9.54034 22.5699 9.76427 22.7196C9.86735 22.7896 9.97526 22.8522 10.0872 22.9069C10.5131 23.1076 10.9765 23.2158 11.4472 23.2246H11.4519H11.5186H11.5226H11.6305C11.6486 23.2603 11.6539 23.3012 11.6455 23.3405Z" fill="#C27614"/>
<path d="M10.0845 22.911C9.35214 22.934 8.38969 22.9285 7.60972 22.8792C7.07018 22.8451 6.61791 22.7903 6.3894 22.7101C6.14355 22.6279 5.90474 22.5259 5.67529 22.4052C5.34839 22.2273 5.12939 22.028 4.98261 21.77C4.97785 21.7612 4.99848 21.7565 5.04053 21.7549C5.10162 21.7549 5.20874 21.7549 5.35077 21.7652C5.61816 21.7819 6.01013 21.8176 6.4616 21.8629H6.47747C7.26378 21.9423 8.23417 22.0519 9.06888 22.1511C9.08713 22.171 9.10697 22.1908 9.1268 22.2107C9.31877 22.3996 9.52811 22.57 9.75204 22.7196C9.85806 22.7914 9.96918 22.8554 10.0845 22.911Z" fill="#F2920C"/>
<path d="M3.16051 24.6201C3.19781 24.4748 8.99635 24.2795 9.1479 24.316C9.29945 24.3525 10.0143 24.9615 9.9842 25.133C9.95404 25.3046 5.96378 26.2764 5.0767 26.1494C4.17693 26.0208 3.02722 25.1394 3.16051 24.6201Z" fill="#C27614"/>
<path d="M3.15979 24.6206C3.06616 24.5039 8.99562 24.28 9.14717 24.3165C9.29872 24.353 9.49153 24.488 9.46455 24.6595C9.43757 24.831 5.57664 25.4901 4.6967 25.3289C3.91198 25.1828 3.45495 24.989 3.15979 24.6206Z" fill="#F2920C"/>
<path d="M4.64374 26.4148C4.6612 26.2663 10.3788 25.2809 10.5343 25.2968C10.6898 25.3127 11.4769 25.8177 11.4769 25.9924C11.4769 26.1671 7.64933 27.6733 6.75353 27.6686C5.84344 27.6646 4.58264 26.9476 4.64374 26.4148Z" fill="#C27614"/>
<path d="M4.6431 26.4148C4.5344 26.3124 10.3782 25.2809 10.5337 25.2968C10.6892 25.3127 10.8979 25.4199 10.8915 25.5938C10.8852 25.7677 7.15437 26.9436 6.25936 26.9071C5.46591 26.8714 4.98666 26.7396 4.6431 26.4148Z" fill="#F2920C"/>
<path d="M6.63647 27.9005C6.63647 27.7513 12.1644 25.9949 12.32 25.9949C12.4755 25.9949 13.3284 26.3824 13.3451 26.5555C13.3618 26.7286 9.78171 28.7422 8.89384 28.8581C7.99248 28.9764 6.64996 28.4373 6.63647 27.9005Z" fill="#C27614"/>
<path d="M6.63648 27.9005C6.51428 27.814 12.1644 25.9949 12.32 25.9949C12.4755 25.9949 12.6976 26.0671 12.7167 26.2402C12.7357 26.4133 9.19774 28.0895 8.3059 28.1721C7.51562 28.2412 7.02289 28.1753 6.63648 27.9005Z" fill="#F2920C"/>
<path d="M14.1102 27.7163C13.6262 28.1022 13.0549 28.5334 12.5352 28.8931C12.2203 29.1168 11.8934 29.3233 11.5561 29.5116L11.5204 29.5299C11.4246 29.5821 11.3242 29.6254 11.2204 29.6593C10.3476 29.9205 8.93689 29.6005 8.84009 29.0725C8.84009 29.0669 8.84485 29.0582 8.85754 29.0463C8.86168 29.0419 8.8662 29.038 8.87103 29.0344L8.91071 29.0058L8.92975 28.9931C9.02258 28.928 9.18603 28.8343 9.39788 28.712C9.82794 28.4738 10.4595 28.1363 11.1221 27.7941C11.7568 27.4678 12.4122 27.1343 12.9541 26.8643C13.2977 26.6928 13.5944 26.5467 13.8063 26.4451L13.8158 26.4991C13.8155 26.5017 13.8155 26.5044 13.8158 26.507C13.8349 26.6129 13.8547 26.7187 13.8753 26.8246C13.8904 26.8969 13.9055 26.9683 13.9221 27.0382C13.9483 27.1589 13.9777 27.2764 14.0078 27.3892C14.0237 27.4458 14.0396 27.5006 14.0554 27.5535C14.0554 27.5535 14.0554 27.5575 14.0554 27.5591C14.0753 27.6107 14.0951 27.6647 14.1102 27.7163Z" fill="#C27614"/>
<path d="M14.6393 26.3801H14.6343C14.6347 26.3784 14.6347 26.3767 14.6343 26.375L14.6393 26.3801Z" fill="#C27614"/>
<path d="M13.9241 27.0356C13.3932 27.4262 12.6204 27.9463 11.9254 28.3656C11.7199 28.4894 11.5215 28.6038 11.3382 28.7046C11.0812 28.8565 10.8085 28.98 10.5249 29.0731C9.75527 29.27 9.25539 29.2827 8.83566 29.0731C8.82931 29.0731 8.83566 29.0611 8.85311 29.0468C8.85725 29.0425 8.86177 29.0385 8.8666 29.0349L8.90627 29.0064L8.92532 28.9936C9.02688 28.9277 9.20461 28.8245 9.43709 28.6959C9.86873 28.4577 10.4852 28.1321 11.1295 27.7978C11.7421 27.4802 12.3792 27.1555 12.91 26.8895C13.2703 26.7084 13.5805 26.5544 13.8003 26.448L13.8098 26.502C13.8094 26.5046 13.8094 26.5073 13.8098 26.5099C13.8288 26.6158 13.8487 26.7217 13.8693 26.8275C13.8923 26.8942 13.9074 26.9657 13.9241 27.0356Z" fill="#F2920C"/>
<path d="M14.9163 28.8389C14.5359 29.2487 14.1308 29.6348 13.7031 29.995C13.6042 30.0764 13.4979 30.1484 13.3857 30.2102C12.574 30.6238 11.1284 30.5635 10.9387 30.0617C10.9387 30.0545 10.9451 30.0394 10.9641 30.0172L10.9752 30.0053C11.1463 29.8365 11.3267 29.6774 11.5156 29.5289C11.7385 29.3455 12.0123 29.1271 12.309 28.8937C12.8549 28.4649 13.4857 27.9805 14.0546 27.5518C14.0546 27.5518 14.0546 27.5557 14.0546 27.5573C14.0705 27.6121 14.0879 27.6661 14.1054 27.7161C14.1481 27.8417 14.1987 27.9645 14.2569 28.0838C14.258 28.0869 14.2596 28.0899 14.2617 28.0925C14.2688 28.1092 14.2776 28.1243 14.2855 28.1401C14.3069 28.179 14.3283 28.2195 14.3506 28.2513C14.3633 28.2719 14.3767 28.2918 14.3918 28.3116C14.5196 28.4886 14.6713 28.6471 14.8425 28.7825C14.8695 28.8024 14.8925 28.8206 14.9163 28.8389Z" fill="#C27614"/>
<path d="M14.3963 28.3122C13.7901 28.8799 13.1625 29.4199 12.7729 29.662C12.7348 29.6859 12.6991 29.7065 12.6666 29.724C12.6341 29.7414 12.6222 29.747 12.6023 29.7565C11.8803 30.0884 11.3939 30.1909 10.9401 30.0598C10.9313 30.0598 10.9401 30.0416 10.9654 30.0154L10.9766 30.0035C11.0599 29.9177 11.2677 29.7414 11.5526 29.5104C11.7724 29.3309 12.039 29.1189 12.3286 28.8918C12.8713 28.4654 13.4973 27.9835 14.0591 27.5547C14.075 27.6095 14.0924 27.6635 14.1099 27.7135C14.1526 27.8391 14.2032 27.9619 14.2614 28.0811C14.2625 28.0843 14.2642 28.0872 14.2662 28.0899C14.2733 28.1065 14.2821 28.1216 14.29 28.1375C14.3114 28.1764 14.3328 28.2169 14.3551 28.2487C14.3678 28.2725 14.3813 28.2923 14.3963 28.3122Z" fill="#F2920C"/>
<path d="M13.45 24.143H13.4429L13.4246 24.1494C12.281 24.5074 11.1146 24.7883 9.93342 24.9902C9.75807 25.0188 9.59462 25.041 9.44862 25.0561H9.44465L9.39149 25.0609C9.23638 25.0794 9.0798 25.0821 8.92415 25.0688C8.75223 25.0451 8.58351 25.0022 8.4211 24.941C8.10747 24.8241 7.81324 24.6605 7.5483 24.4558C7.50466 24.4225 7.46261 24.3876 7.42294 24.3534L7.41659 24.3479C7.24939 24.2109 7.11401 24.0391 7.01987 23.8444C6.99137 23.7791 6.97703 23.7085 6.97781 23.6372C6.97793 23.6144 6.98086 23.5918 6.98654 23.5697C6.98654 23.5634 7.00082 23.557 7.02463 23.5491H7.03653L7.08414 23.5387C7.25473 23.5046 7.63955 23.4657 8.13228 23.4268H8.1545C9.09712 23.3529 10.4301 23.2767 11.4545 23.2275H11.4592H11.5259H11.5298H11.6378C12.3019 23.2323 12.862 23.133 13.1279 23.2902C13.2029 23.3477 13.2583 23.427 13.2865 23.5173C13.3611 23.7204 13.4171 23.9298 13.454 24.143H13.45Z" fill="#C27614"/>
<path d="M13.2754 23.5188C13.1675 23.6935 9.70483 24.3454 8.64558 24.27C8.60412 24.2676 8.5628 24.2631 8.5218 24.2565C7.95369 24.1612 7.55538 24.0357 7.26418 23.8341C7.18499 23.7801 7.11184 23.7178 7.04598 23.6483C7.02198 23.6243 6.99921 23.5991 6.97774 23.5728C6.97298 23.5665 6.98647 23.5593 7.01583 23.5522H7.02773L7.07534 23.5419C7.24752 23.5125 7.63075 23.476 8.13142 23.4378H8.15443C9.11847 23.364 10.4856 23.279 11.5171 23.2314H11.521H11.629C12.2931 23.2362 12.8532 23.1369 13.1191 23.2941C13.1928 23.3513 13.2474 23.4297 13.2754 23.5188Z" fill="#F2920C"/>
<path d="M13.6476 25.4431C13.2295 25.6289 12.7685 25.8218 12.3273 25.9925C11.5815 26.2824 10.8896 26.5102 10.5476 26.5364H10.5222H10.5135C10.4651 26.5364 10.4151 26.5364 10.3643 26.5364H10.3334H10.3151C9.93218 26.5053 9.55814 26.4044 9.21144 26.2387C8.85835 26.0735 8.56477 25.8583 8.43068 25.6424C8.43094 25.64 8.43094 25.6376 8.43068 25.6352L8.42275 25.6217C8.37734 25.5487 8.35469 25.4639 8.35768 25.378C8.35768 25.3708 8.37117 25.3621 8.39498 25.3502L8.43941 25.3319C8.58937 25.2731 8.93532 25.1787 9.39155 25.0643C9.55024 25.0254 9.71607 24.9849 9.8946 24.9412C11.0395 24.6649 12.5535 24.3306 13.4477 24.1472C13.4834 24.3338 13.5175 24.5442 13.5516 24.7634C13.5786 24.9381 13.6056 25.1215 13.631 25.3097C13.631 25.3097 13.631 25.3136 13.631 25.3152C13.6357 25.3581 13.6421 25.4002 13.6476 25.4431Z" fill="#C27614"/>
<path d="M13.5473 24.764C12.8244 25.0443 11.8469 25.3786 11.0709 25.5898C10.9836 25.6137 10.8987 25.6359 10.8178 25.6565C10.5477 25.733 10.2703 25.7806 9.99023 25.7987C9.42291 25.7987 9.01349 25.7415 8.69531 25.5954C8.6916 25.5945 8.6881 25.5929 8.685 25.5906C8.66868 25.5839 8.65278 25.5762 8.63739 25.5676C8.5355 25.5163 8.44035 25.4526 8.35413 25.3778C8.34778 25.3723 8.36048 25.3627 8.39142 25.35L8.43586 25.3318C8.59455 25.2762 8.96112 25.1777 9.43957 25.0594H9.44354L9.89581 24.9491C11.032 24.6767 12.5293 24.3416 13.4235 24.155H13.4425C13.479 24.3345 13.5132 24.5425 13.5473 24.764Z" fill="#F2920C"/>
<path d="M13.8766 26.8216C13.0244 27.2981 12.173 27.7221 11.7977 27.7848C11.719 27.798 11.6395 27.8062 11.5597 27.8094H11.5422C11.4629 27.8094 11.3835 27.8094 11.3042 27.8094C11.2479 27.8094 11.1915 27.8023 11.1344 27.7959H11.1193C10.791 27.7586 10.4701 27.6724 10.1672 27.5402C9.79187 27.3727 9.5213 27.1432 9.50781 26.9098C9.50781 26.9018 9.52447 26.8875 9.55542 26.8693L9.58478 26.8526L9.59509 26.847L9.61969 26.8351L9.63397 26.8272H9.65143C9.78949 26.7597 10.0228 26.6612 10.3179 26.5445C10.5004 26.4715 10.7059 26.3921 10.9265 26.3063H10.9313C11.7541 25.9935 12.7927 25.6163 13.629 25.3193C13.629 25.3193 13.629 25.3233 13.629 25.3249C13.6353 25.367 13.6417 25.4091 13.6472 25.4519C13.6782 25.6608 13.7099 25.8744 13.744 26.0872C13.7631 26.2105 13.7837 26.3328 13.8059 26.454L13.8155 26.508C13.8151 26.5106 13.8151 26.5133 13.8155 26.5159C13.8356 26.6165 13.8559 26.7184 13.8766 26.8216Z" fill="#C27614"/>
<path d="M14.6393 26.3801H14.6343C14.6347 26.3784 14.6347 26.3767 14.6343 26.375L14.6393 26.3801Z" fill="#C27614"/>
<path d="M13.7444 26.077C13.5516 26.1722 13.354 26.2683 13.1572 26.3604C12.3447 26.7439 11.5481 27.075 11.1847 27.1179L11.0879 27.1298C10.3564 27.2132 9.88663 27.1576 9.50974 26.9075C9.50181 26.902 9.51847 26.8877 9.55735 26.867L9.58671 26.8503L9.60575 26.8416L9.64225 26.8241H9.65018L9.66526 26.817C9.80887 26.7511 10.0414 26.6582 10.331 26.5415C10.4595 26.4914 10.5992 26.4366 10.7475 26.3827H10.7523C11.6013 26.0571 12.7296 25.645 13.627 25.3242C13.6333 25.3663 13.6397 25.4084 13.6452 25.4513C13.6785 25.6514 13.7103 25.8649 13.7444 26.077Z" fill="#F2920C"/>
<path d="M14.2898 28.1414C14.1549 28.2399 14.0248 28.3312 13.9042 28.4114C13.8852 28.4249 13.8661 28.4368 13.8479 28.4487C13.6646 28.5781 13.4674 28.6865 13.2599 28.7719C13.0254 28.8478 12.7811 28.889 12.5347 28.8942C12.4657 28.8942 12.3974 28.8942 12.3284 28.8942H12.3133C11.9796 28.888 11.6495 28.8244 11.3374 28.706C11.0795 28.6012 10.897 28.4559 10.8613 28.2828C10.8613 28.2756 10.8701 28.2629 10.8915 28.2431L10.9177 28.2216L10.9613 28.1891C11.0756 28.1049 11.2787 27.9731 11.5469 27.8119C12.1293 27.4594 12.9981 26.9615 13.8185 26.501C13.8182 26.5036 13.8182 26.5063 13.8185 26.5089C13.8376 26.6148 13.8574 26.7207 13.878 26.8265C13.8931 26.8988 13.9082 26.9702 13.9248 27.0401C13.951 27.1608 13.9804 27.2783 14.0105 27.3911C14.0264 27.4477 14.0423 27.5025 14.0581 27.5554C14.0581 27.5554 14.0581 27.5594 14.0581 27.561C14.074 27.6158 14.0915 27.6698 14.1089 27.7198C14.1517 27.8454 14.2023 27.9682 14.2605 28.0874C14.2616 28.0906 14.2632 28.0935 14.2652 28.0962C14.2732 28.1105 14.2819 28.1256 14.2898 28.1414Z" fill="#C27614"/>
<path d="M14.6393 26.3801H14.6343C14.6347 26.3784 14.6347 26.3767 14.6343 26.375L14.6393 26.3801Z" fill="#C27614"/>
<path d="M14.009 27.3868C13.4004 27.7933 12.8394 28.126 12.5458 28.2142C12.3418 28.2767 12.1344 28.3273 11.9246 28.3658C11.4913 28.4452 11.1581 28.4167 10.8574 28.2817C10.8494 28.2817 10.8574 28.2642 10.8875 28.242L10.9137 28.2205L10.9574 28.188C11.0756 28.1086 11.2874 27.9736 11.5604 27.81C12.1428 27.4599 13.0037 26.966 13.8162 26.5078C13.8352 26.6137 13.855 26.7196 13.8757 26.8254C13.8907 26.8977 13.9058 26.9691 13.9225 27.039C13.9495 27.1565 13.9788 27.274 14.009 27.3868Z" fill="#F2920C"/>
<path d="M14.6393 26.3801H14.6343C14.6347 26.3784 14.6347 26.3767 14.6343 26.375L14.6393 26.3801Z" fill="#F2920C"/>
<path d="M15.5408 29.2439C15.3971 29.3932 15.2374 29.5263 15.0647 29.6409C14.7994 29.7871 14.5113 29.8874 14.2126 29.9379H14.2015C14.0379 29.967 13.8724 29.9842 13.7064 29.9895C13.2493 30.0038 12.8423 29.9164 12.6709 29.7203C12.6475 29.6937 12.6282 29.6637 12.6138 29.6314C12.6138 29.625 12.6193 29.6123 12.6304 29.5932L12.6384 29.5821C12.7582 29.4289 13.2414 28.9842 13.8484 28.4467C13.9809 28.3292 14.1197 28.2085 14.2618 28.083C14.2629 28.0862 14.2645 28.0891 14.2665 28.0917C14.2737 28.1084 14.2824 28.1235 14.2903 28.1394C14.3118 28.1783 14.3332 28.2188 14.3554 28.2505C14.3681 28.2712 14.3816 28.291 14.3967 28.3109C14.5245 28.4879 14.6761 28.6463 14.8473 28.7818C14.8696 28.8008 14.8926 28.8191 14.9164 28.8373C14.9783 28.8858 15.0433 28.9326 15.11 28.9779L15.1171 28.9834C15.2512 29.0732 15.394 29.1629 15.5408 29.2439Z" fill="#C27614"/>
<path d="M14.8466 28.7837C14.6641 28.9555 14.4644 29.1079 14.2507 29.2387C13.6318 29.5682 13.1851 29.7071 12.7725 29.6643C12.7175 29.6584 12.663 29.6494 12.6091 29.6373C12.6011 29.6373 12.6091 29.6222 12.6257 29.5992L12.6337 29.588C12.7614 29.4364 13.2684 28.9735 13.9032 28.4153L14.265 28.0977C14.2721 28.1143 14.2809 28.1294 14.2888 28.1453C14.3102 28.1842 14.3316 28.2247 14.3539 28.2565C14.3665 28.2771 14.38 28.297 14.3951 28.3168C14.5235 28.4925 14.6754 28.6496 14.8466 28.7837Z" fill="#F2920C"/>
<path d="M16.7226 29.7733C16.5746 29.9579 16.4067 30.1257 16.2219 30.2735C15.4745 30.7952 14.0344 30.9349 13.7781 30.4641C13.7781 30.4585 13.7781 30.4466 13.7892 30.4283L13.8003 30.4117V30.4077C13.9236 30.2455 14.0561 30.0904 14.197 29.9432C14.4351 29.6828 14.7524 29.3453 15.1087 28.9792L15.1158 28.9848C15.2507 29.0761 15.3935 29.1627 15.5403 29.2437C15.6681 29.3143 15.7982 29.3802 15.9283 29.4422C16.2037 29.5716 16.4758 29.6828 16.7226 29.7733Z" fill="#C27614"/>
<path d="M15.929 29.4422C15.7635 29.6244 15.5798 29.7891 15.3808 29.9337C14.7119 30.3625 14.2445 30.5308 13.7772 30.4641C13.7693 30.4641 13.7732 30.4506 13.7883 30.4284L13.7994 30.4117V30.4078C13.8581 30.3284 14.0033 30.1608 14.2064 29.9409C14.4445 29.682 14.7619 29.3477 15.1142 28.988C15.249 29.0794 15.3919 29.1659 15.5387 29.2469C15.6688 29.3112 15.7989 29.3803 15.929 29.4422Z" fill="#F2920C"/>
<path d="M18.3682 29.4842C18.3682 29.8153 17.7707 30.067 17.6589 30.071L17.6311 30.0631H17.6271C17.5192 30.0337 17.1669 29.9352 16.7258 29.7724C16.4798 29.6819 16.2069 29.5708 15.9323 29.4413C15.8022 29.3794 15.6721 29.3135 15.5443 29.2428C15.3975 29.1634 15.2547 29.0753 15.1198 28.984L15.1127 28.9784C15.046 28.9332 14.981 28.8863 14.9191 28.8379C14.8953 28.8196 14.8723 28.8013 14.8501 28.7823C14.6788 28.6469 14.5272 28.4884 14.3994 28.3114C14.3843 28.2916 14.3708 28.2717 14.3581 28.2511C14.3359 28.2161 14.3145 28.1788 14.2931 28.1399C14.2851 28.124 14.2764 28.109 14.2692 28.0923C14.2672 28.0896 14.2656 28.0867 14.2645 28.0835C14.2063 27.9643 14.1557 27.8415 14.1129 27.7159C14.0955 27.6643 14.078 27.6103 14.0622 27.5571C14.0622 27.5571 14.0622 27.5571 14.0622 27.5515C14.0463 27.4986 14.0304 27.4438 14.0146 27.3872C13.9844 27.2744 13.955 27.1569 13.9289 27.0362C13.9122 26.9664 13.8971 26.8949 13.882 26.8226C13.8614 26.7194 13.8416 26.6135 13.8225 26.505C13.8222 26.5024 13.8222 26.4997 13.8225 26.4971L13.813 26.4431C13.7908 26.3219 13.7702 26.1996 13.7511 26.0762C13.717 25.8642 13.6853 25.6506 13.6543 25.441C13.6488 25.3981 13.6424 25.3561 13.6361 25.314C13.6361 25.314 13.6361 25.31 13.6361 25.3084C13.6091 25.1202 13.5821 24.9368 13.5567 24.7621C13.5226 24.5406 13.4885 24.3326 13.4528 24.146C13.416 23.9328 13.3599 23.7234 13.2854 23.5203C13.2572 23.43 13.2017 23.3507 13.1267 23.2932C12.8609 23.1344 12.3007 23.2352 11.6366 23.2305H11.5287H11.5247H11.4581H11.4533C10.9827 23.2218 10.5192 23.1135 10.0933 22.9128C9.98137 22.8581 9.87346 22.7955 9.77038 22.7255C9.54645 22.5758 9.33711 22.4054 9.14514 22.2165C9.1253 22.1966 9.10547 22.1768 9.08722 22.1569L9.08087 22.1514C8.90313 21.9693 8.75098 21.7639 8.6286 21.5408C8.50841 21.3385 8.44152 21.109 8.43421 20.8738C8.43276 20.8298 8.44376 20.7863 8.46595 20.7483C8.57544 20.6046 13.4155 22.2093 13.8662 22.7088C14.0114 22.8676 14.1359 23.3781 14.2526 24.0157C14.2526 24.0157 14.2526 24.0157 14.2526 24.0221C14.2772 24.1579 14.3018 24.3 14.3256 24.4461C14.3581 24.6399 14.3899 24.8431 14.4216 25.0416L14.4287 25.0885C14.4605 25.2862 14.4914 25.4855 14.5224 25.6816C14.5438 25.815 14.5652 25.9468 14.5874 26.0786C14.587 26.0805 14.587 26.0824 14.5874 26.0842C14.6041 26.1866 14.6215 26.2867 14.639 26.3843C14.6394 26.3859 14.6394 26.3875 14.639 26.3891C14.6715 26.5678 14.7041 26.7369 14.7382 26.8917C14.7477 26.9378 14.758 26.9822 14.7683 27.0251C14.7678 27.0264 14.7678 27.0278 14.7683 27.0291C14.7779 27.0735 14.7882 27.1156 14.7985 27.1561C14.8294 27.2824 14.8678 27.4068 14.9135 27.5285V27.5365C14.9286 27.5746 14.9445 27.6095 14.9596 27.6397C14.9722 27.6643 14.9862 27.6882 15.0016 27.7111L15.0127 27.7262C15.1095 27.8565 15.3095 27.9875 15.5578 28.1113L15.584 28.124C15.6633 28.1637 15.749 28.2034 15.8371 28.24L15.8458 28.2439C15.995 28.3083 16.1521 28.3686 16.3084 28.4266C16.4441 28.4758 16.5798 28.5226 16.7091 28.5655C17.0225 28.6695 17.3034 28.7537 17.4772 28.8077C17.538 28.8236 17.5977 28.8438 17.6557 28.868C17.7692 28.8617 18.3682 29.1523 18.3682 29.4842Z" fill="#C27614"/>
<path d="M18.6891 30.6445C18.9862 30.6445 19.227 30.129 19.227 29.4931C19.227 28.8573 18.9862 28.3418 18.6891 28.3418C18.392 28.3418 18.1511 28.8573 18.1511 29.4931C18.1511 30.129 18.392 30.6445 18.6891 30.6445Z" fill="#C27614"/>
<path d="M18.6884 25.332C17.6141 25.332 16.7437 27.1956 16.7437 29.4935C16.7437 31.7914 17.6164 33.6558 18.6884 33.6558C19.7604 33.6558 20.6339 31.7922 20.6339 29.4935C20.6339 27.1948 19.7627 25.332 18.6884 25.332ZM18.6884 32.9047C17.8085 32.9047 17.0944 31.3778 17.0944 29.4904C17.0944 27.6029 17.8085 26.076 18.6884 26.076C19.5683 26.076 20.2824 27.6037 20.2824 29.4904C20.2824 31.377 19.5691 32.9047 18.6884 32.9047Z" fill="#C27614"/>
<path d="M20.2839 29.4932C20.2839 31.3774 19.5698 32.9075 18.6899 32.9075C18.6204 32.9075 18.5512 32.8979 18.4844 32.8789C19.2675 32.6629 19.8729 31.2313 19.8729 29.4963C19.8729 27.7614 19.2675 26.3298 18.4844 26.1138C18.5512 26.0948 18.6204 26.0852 18.6899 26.0852C19.5698 26.082 20.2839 27.6097 20.2839 29.4932Z" fill="#F2920C"/>
<path d="M18.3541 33.5939C18.1941 33.6925 18.0104 33.7457 17.8225 33.7479C16.7236 33.7479 15.8325 31.8423 15.8325 29.4912C15.8325 27.14 16.7236 25.2344 17.8225 25.2344C18.0108 25.2364 18.1949 25.2899 18.3549 25.3892C18.3549 25.3892 18.3549 25.3892 18.3501 25.3892C18.2432 25.3486 18.1297 25.3276 18.0153 25.3273C16.9418 25.3273 16.0706 27.1909 16.0706 29.4888C16.0706 31.7867 16.9434 33.6511 18.0153 33.6511C18.1308 33.6527 18.2456 33.6334 18.3541 33.5939Z" fill="#C27614"/>
<path d="M18.2771 33.5621C18.3033 33.574 18.3287 33.5851 18.3565 33.5939C18.2495 33.6345 18.1361 33.6555 18.0217 33.6558C16.9481 33.6558 16.0769 31.7922 16.0769 29.4935C16.0769 27.1948 16.9497 25.332 18.0217 25.332C18.1361 25.3324 18.2495 25.3534 18.3565 25.394C18.3311 25.4027 18.3057 25.4138 18.2771 25.4257C18.2354 25.4196 18.1932 25.4167 18.151 25.417C17.0989 25.417 16.2467 27.2433 16.2467 29.4935C16.2467 31.7438 17.0997 33.5709 18.151 33.5709C18.1932 33.5712 18.2354 33.5682 18.2771 33.5621Z" fill="#F2920C"/>
<path d="M18.277 33.5619C18.2353 33.568 18.1931 33.5709 18.1509 33.5706C17.0987 33.5706 16.2466 31.7444 16.2466 29.4933C16.2466 27.2422 17.0995 25.4168 18.1509 25.4168C18.1931 25.4165 18.2353 25.4194 18.277 25.4255C17.4042 25.8297 16.7441 27.4979 16.7441 29.4933C16.7441 31.4887 17.4011 33.1577 18.277 33.5619Z" fill="#F2920C"/>
<path d="M18.9637 30.4827V32.8528C18.7872 32.9216 18.5913 32.9216 18.4148 32.8528V30.4835C18.4453 30.5291 18.4858 30.5672 18.5334 30.5947C18.5809 30.6222 18.6341 30.6385 18.6888 30.6423C18.731 30.6408 18.7725 30.6308 18.8108 30.6131C18.8492 30.5954 18.8836 30.5702 18.912 30.539C18.9309 30.5219 18.9482 30.503 18.9637 30.4827Z" fill="#C27614"/>
<path d="M18.4156 26.1357V28.5059C18.3878 28.5405 18.3633 28.5778 18.3426 28.6171L18.1511 28.3844V26.2818C18.2314 26.22 18.3206 26.1707 18.4156 26.1357Z" fill="#F2920C"/>
<path d="M18.4156 30.4832V32.8526C18.3205 32.8171 18.2313 32.7673 18.1511 32.7049V30.611L18.3441 30.3728C18.3643 30.4118 18.3883 30.4488 18.4156 30.4832Z" fill="#F2920C"/>
<path d="M20.1526 28.1435L19.2187 29.2949C19.2058 29.0751 19.1519 28.8597 19.0601 28.6596L19.9884 27.5146C20.0565 27.7205 20.1114 27.9306 20.1526 28.1435Z" fill="#C27614"/>
<path d="M18.3441 30.3745L18.1513 30.6127L17.4094 31.5274C17.3394 31.3239 17.2821 31.1163 17.238 30.9057L18.1513 29.7789L18.1664 29.7615C18.1853 29.9754 18.2457 30.1836 18.3441 30.3745Z" fill="#C27614"/>
<path d="M19.9867 27.5142L19.0583 28.6592C19.0329 28.6042 19.001 28.5525 18.9631 28.5052V28.3758L19.8867 27.2395C19.9208 27.3268 19.9549 27.419 19.9867 27.5142Z" fill="#F2920C"/>
<path d="M18.9637 26.1358V28.5068C18.9473 28.4848 18.9292 28.4641 18.9097 28.4449C18.8522 28.3836 18.7728 28.3477 18.6888 28.3448C18.6341 28.3486 18.5809 28.3648 18.5334 28.3924C18.4858 28.4199 18.4453 28.458 18.4148 28.5036V26.1358C18.5913 26.067 18.7872 26.067 18.9637 26.1358Z" fill="#C27614"/>
<path d="M18.1659 29.7597L18.1508 29.7772L17.2375 30.9039C17.2145 30.7983 17.1947 30.6895 17.1772 30.5776L18.0548 29.4961L18.1508 29.377V29.373C18.1508 29.412 18.1508 29.4525 18.1508 29.4929C18.1508 29.5334 18.1508 29.5723 18.1508 29.6176C18.1564 29.6668 18.1611 29.7137 18.1659 29.7597Z" fill="#F2920C"/>
<path d="M18.3428 28.6157C18.2444 28.8079 18.1843 29.0175 18.1658 29.2326L18.1515 29.2152L17.2351 28.0972C17.2787 27.886 17.3357 27.6778 17.4057 27.4739L18.1515 28.383L18.3428 28.6157Z" fill="#C27614"/>
<path d="M20.156 30.8279C20.1148 31.0414 20.06 31.252 19.9918 31.4584L19.061 30.3245C19.153 30.1231 19.2068 29.9064 19.2197 29.6853L20.156 30.8279Z" fill="#C27614"/>
<path d="M18.1653 29.2321C18.1605 29.2782 18.1565 29.325 18.1542 29.3735V29.3774L18.0582 29.4965L17.1782 28.4238C17.1957 28.3119 17.2155 28.2023 17.2377 28.0967L18.1542 29.2147L18.1653 29.2321Z" fill="#F2920C"/>
<path d="M19.9914 31.4552C19.9597 31.5521 19.9264 31.6442 19.8899 31.7315L18.9631 30.6016V30.4794C19.0018 30.4305 19.0346 30.3772 19.0607 30.3206L19.9914 31.4552Z" fill="#F2920C"/>
<path d="M36.1033 18.7775C36.0184 18.6544 30.5024 20.4561 30.373 20.5426C30.2437 20.6292 29.7795 21.4454 29.8668 21.5971C29.9541 21.7488 34.0356 21.2938 34.8259 20.8714C35.6296 20.4418 36.4056 19.2206 36.1033 18.7775Z" fill="#C27614"/>
<path d="M36.1025 18.7774C36.1509 18.636 30.5015 20.4559 30.3722 20.5425C30.2428 20.629 30.1071 20.8212 30.1944 20.9728C30.2817 21.1245 34.1307 20.4218 34.9028 19.9684C35.5883 19.5658 35.9501 19.2268 36.1025 18.7774Z" fill="#F2920C"/>
<path d="M35.2979 20.9243C35.2289 20.791 29.5359 21.9113 29.3963 21.982C29.2566 22.0527 28.698 22.8062 28.7663 22.9666C28.8345 23.127 32.9414 23.1714 33.7769 22.8475C34.6267 22.518 35.5455 21.4 35.2979 20.9243Z" fill="#C27614"/>
<path d="M35.2985 20.9246C35.3636 20.7896 29.5365 21.9116 29.3968 21.9822C29.2572 22.0529 29.1001 22.2268 29.1683 22.3872C29.2366 22.5476 33.1427 22.3173 33.9639 21.9608C34.6931 21.6448 35.0938 21.3494 35.2985 20.9246Z" fill="#F2920C"/>
<path d="M34.3766 22.8103C34.3203 22.6713 28.5471 23.2589 28.4019 23.3161C28.2567 23.3732 27.6307 24.072 27.6839 24.2379C27.737 24.4039 31.8217 24.8287 32.6826 24.5841C33.5602 24.3348 34.5782 23.3065 34.3766 22.8103Z" fill="#C27614"/>
<path d="M34.3772 22.8106C34.4566 22.682 28.5477 23.2593 28.4025 23.3164C28.2573 23.3736 28.0852 23.5324 28.1375 23.6984C28.1899 23.8643 32.1008 23.9977 32.9522 23.719C33.7068 23.4713 34.1336 23.2148 34.3772 22.8106Z" fill="#F2920C"/>
<path d="M32.5822 20.6368C32.3525 20.9745 32.0606 21.2653 31.7221 21.4935L31.7086 21.5023L31.6911 21.5126C31.6382 21.5476 31.5834 21.5797 31.5269 21.6087C31.3737 21.6758 31.2142 21.7274 31.0508 21.7627L31.0215 21.769C30.4598 21.8899 29.8923 21.9814 29.3211 22.043H29.3013C28.5514 22.1311 27.7778 22.1931 27.2383 22.2137C27.2581 22.1939 27.278 22.174 27.2962 22.1542L27.3018 22.1486C27.48 21.9665 27.6324 21.7608 27.7548 21.5372C27.8751 21.335 27.942 21.1054 27.9492 20.8702C29.4227 20.4256 32.2949 19.5998 32.7893 19.5505H32.8059C32.8385 19.5505 32.8575 19.5505 32.8615 19.5569C32.888 19.5983 32.9055 19.6448 32.913 19.6935C32.913 19.6935 32.913 19.6982 32.913 19.7014C32.9591 19.9412 32.8202 20.293 32.5822 20.6368Z" fill="#C27614"/>
<path d="M32.8668 19.5529C32.8448 19.6146 32.8183 19.6745 32.7875 19.7323C32.7859 19.7357 32.7841 19.7389 32.7819 19.7419C32.5876 20.0936 32.2265 20.3819 31.6346 20.7066C31.4567 20.7936 31.2707 20.8627 31.0792 20.9131C30.7729 21.0028 30.3889 21.0925 29.9787 21.1759C29.2225 21.3307 28.3775 21.4649 27.7642 21.538C27.8844 21.3357 27.9513 21.1062 27.9586 20.871C29.432 20.4311 32.3067 19.6164 32.7986 19.5481H32.8153C32.851 19.545 32.87 19.545 32.8668 19.5529Z" fill="#F2920C"/>
<path d="M31.2739 22.3678C31.1064 22.6332 30.8955 22.8686 30.6502 23.0642L30.6407 23.0721C30.635 23.0778 30.6289 23.0831 30.6224 23.088H30.6082C30.3524 23.3045 30.0586 23.4714 29.7417 23.5803C29.6345 23.6099 29.5248 23.6298 29.414 23.6398L29.3347 23.6478C28.9342 23.6771 28.5324 23.6853 28.131 23.6724H28.0239C26.5623 23.6343 24.7707 23.4501 24.7342 23.3413C24.7277 23.3033 24.7338 23.2642 24.7517 23.2301H24.8596H24.8636H24.9294H24.935C25.4053 23.221 25.8684 23.1128 26.2942 22.9125C26.4061 22.8578 26.514 22.7951 26.6171 22.7251C26.8412 22.5754 27.0508 22.405 27.2431 22.2161C27.263 22.1963 27.2828 22.1764 27.301 22.1566L27.3066 22.151C28.1659 22.0438 29.1704 21.9271 29.9639 21.8477H29.9686H29.9869C30.4249 21.8048 30.7994 21.7731 31.0509 21.7604C31.1446 21.7534 31.2387 21.7521 31.3326 21.7564C31.3675 21.7564 31.3873 21.7643 31.3905 21.7715C31.4627 21.9271 31.408 22.1415 31.2739 22.3678Z" fill="#C27614"/>
<path d="M31.3917 21.7716C31.245 22.0273 31.026 22.2266 30.6991 22.4069C30.4696 22.5276 30.2308 22.6295 29.985 22.7118C29.7564 22.7912 29.3042 22.8468 28.7646 22.8809C27.9847 22.9301 27.019 22.9357 26.2891 22.9127C26.401 22.8579 26.5089 22.7953 26.612 22.7253C26.8361 22.5756 27.0457 22.4052 27.238 22.2163C27.2579 22.1964 27.2777 22.1766 27.296 22.1567C28.1299 22.0575 29.1003 21.9479 29.8866 21.8685H29.9024C30.3571 21.8233 30.7491 21.7891 31.0133 21.7708C31.1561 21.7613 31.2632 21.7581 31.3243 21.7605C31.3791 21.7581 31.3997 21.7629 31.3917 21.7716Z" fill="#F2920C"/>
<path d="M33.2175 24.6201C33.1802 24.4748 27.3809 24.2795 27.2293 24.316C27.0778 24.3525 26.3629 24.9615 26.393 25.133C26.4232 25.3046 30.4142 26.2764 31.3005 26.1494C32.205 26.0208 33.3524 25.1394 33.2175 24.6201Z" fill="#C27614"/>
<path d="M33.217 24.6206C33.3107 24.5039 27.3804 24.28 27.2289 24.3165C27.0773 24.353 26.8845 24.488 26.9115 24.6595C26.9385 24.831 30.7994 25.4901 31.6793 25.3289C32.4664 25.1828 32.9235 24.989 33.217 24.6206Z" fill="#F2920C"/>
<path d="M31.7353 26.4148C31.7187 26.2663 26.0003 25.2809 25.8448 25.2968C25.6892 25.3127 24.899 25.8177 24.9053 25.9924C24.9117 26.1671 28.7329 27.6733 29.6287 27.6686C30.5396 27.6646 31.7964 26.9476 31.7353 26.4148Z" fill="#C27614"/>
<path d="M31.7354 26.4148C31.8441 26.3124 26.0003 25.2809 25.8448 25.2968C25.6893 25.3127 25.4806 25.4199 25.487 25.5938C25.4933 25.7677 29.2241 26.9436 30.1191 26.9071C30.9158 26.8714 31.3918 26.7396 31.7354 26.4148Z" fill="#F2920C"/>
<path d="M29.7405 27.9005C29.7405 27.7513 24.2125 25.9949 24.0562 25.9949C23.8999 25.9949 23.0477 26.3824 23.0311 26.5555C23.0144 26.7286 26.5945 28.7422 27.4823 28.8581C28.3861 28.9764 29.7254 28.4373 29.7405 27.9005Z" fill="#C27614"/>
<path d="M29.7408 27.9005C29.8622 27.814 24.2128 25.9949 24.0565 25.9949C23.9002 25.9949 23.6788 26.0671 23.6597 26.2402C23.6407 26.4133 27.1787 28.0895 28.0705 28.1721C28.8632 28.2412 29.3567 28.1753 29.7408 27.9005Z" fill="#F2920C"/>
<path d="M21.7455 26.3779C21.7455 26.3779 21.7455 26.3779 21.7455 26.383H21.7405L21.7455 26.3779Z" fill="#C27614"/>
<path d="M27.5423 29.0732C27.4463 29.6013 26.0348 29.9213 25.162 29.66C25.0583 29.626 24.9579 29.5827 24.862 29.5306L24.8287 29.5131C24.4899 29.3245 24.1614 29.1178 23.8448 28.8938C23.3251 28.5341 22.753 28.0998 22.269 27.7162C22.2873 27.6646 22.304 27.6122 22.3206 27.5574C22.3206 27.5574 22.3206 27.5535 22.3206 27.5511C22.337 27.4982 22.3529 27.4434 22.3682 27.3867C22.3984 27.274 22.4277 27.1565 22.4547 27.0358C22.4706 26.9659 22.4857 26.8944 22.5007 26.8222C22.5214 26.7189 22.5412 26.6141 22.561 26.5046C22.561 26.5046 22.561 26.499 22.561 26.4966C22.561 26.4784 22.5682 26.4609 22.5713 26.4426C22.7832 26.5451 23.0792 26.6904 23.4227 26.8619C23.9646 27.1318 24.624 27.4653 25.254 27.7917C25.9173 28.1339 26.5489 28.4682 26.979 28.7096C27.1514 28.8025 27.319 28.904 27.4812 29.0137L27.5058 29.032C27.5107 29.0355 27.5152 29.0395 27.5193 29.0439C27.5376 29.0589 27.5439 29.0677 27.5423 29.0732Z" fill="#C27614"/>
<path d="M27.5424 29.0732C27.1203 29.2837 26.6228 29.271 25.8532 29.0732C25.5714 28.9797 25.3004 28.8565 25.0447 28.7056C24.8622 28.6048 24.6638 28.4904 24.4583 28.3658C23.764 27.9465 22.992 27.4272 22.4612 27.0358C22.4771 26.9659 22.4921 26.8944 22.5072 26.8222C22.5278 26.7189 22.5477 26.6141 22.5675 26.5046C22.5675 26.5046 22.5675 26.499 22.5675 26.4966C22.5675 26.4784 22.5746 26.4609 22.5778 26.4426C22.796 26.5482 23.1039 26.7007 23.4609 26.8801C23.991 27.1469 24.6305 27.4733 25.2446 27.7909C25.8889 28.1252 26.5054 28.4499 26.937 28.6889C27.1981 28.8342 27.3909 28.9462 27.4829 29.0065L27.5075 29.0248C27.5124 29.0284 27.5169 29.0324 27.521 29.0367C27.5424 29.0613 27.5488 29.0732 27.5424 29.0732Z" fill="#F2920C"/>
<path d="M25.4406 30.0615C25.2518 30.5633 23.8061 30.6237 22.9944 30.21C22.8822 30.1482 22.776 30.0762 22.6771 29.9948C22.2494 29.6347 21.8442 29.2486 21.4639 28.8387C21.4877 28.8204 21.5107 28.8022 21.5329 28.7831C21.7041 28.6477 21.8558 28.4893 21.9836 28.3123C21.9987 28.2924 22.0121 28.2726 22.0248 28.2519C22.0471 28.217 22.0685 28.1797 22.0899 28.1407L22.1137 28.0939L22.1185 28.0852C22.1769 27.9656 22.2272 27.8422 22.2692 27.7159C22.2875 27.6643 22.3041 27.6119 22.3208 27.5571C22.3208 27.5571 22.3208 27.5532 22.3208 27.5508C22.8873 27.9796 23.5181 28.4639 24.0664 28.8927C24.3663 29.1309 24.6401 29.3469 24.8598 29.5279C25.0979 29.7201 25.2732 29.8733 25.3653 29.967L25.3835 29.9853L25.4002 30.0027L25.4113 30.0146C25.4319 30.0393 25.4406 30.0544 25.4406 30.0615Z" fill="#C27614"/>
<path d="M25.4411 30.0616C24.988 30.1926 24.5008 30.0902 23.7796 29.7583C23.759 29.7488 23.7375 29.7376 23.7145 29.7249C23.6915 29.7122 23.6471 29.6876 23.609 29.6638C23.2194 29.42 22.5918 28.8801 21.9856 28.314C22.0007 28.2941 22.0142 28.2743 22.0269 28.2536C22.0491 28.2187 22.0705 28.1814 22.0919 28.1424L22.1157 28.0956L22.1205 28.0869C22.1789 27.9673 22.2292 27.8439 22.2712 27.7176C22.2895 27.666 22.3061 27.6136 22.3228 27.5588C22.8846 27.9868 23.513 28.4688 24.0533 28.8952C24.3437 29.1231 24.6087 29.3351 24.8309 29.5145C25.0808 29.717 25.2705 29.8774 25.3697 29.9711L25.3879 29.9894L25.4046 30.0068L25.4157 30.0187C25.4411 30.0433 25.4474 30.0592 25.4411 30.0616Z" fill="#F2920C"/>
<path d="M29.4123 23.6411C29.413 23.7124 29.3987 23.783 29.3703 23.8483C29.2761 24.043 29.1407 24.2148 28.9735 24.3517L28.9664 24.3573C28.9267 24.3922 28.887 24.4256 28.8418 24.4597C28.5766 24.664 28.2825 24.8275 27.969 24.9449C27.662 25.0706 27.327 25.112 26.9986 25.0648L26.9455 25.06C26.7987 25.0441 26.6344 25.0219 26.4575 24.9933C25.2763 24.7914 24.11 24.5104 22.9663 24.1524L22.9481 24.1461C22.9849 23.9329 23.0409 23.7235 23.1155 23.5204C23.1437 23.4301 23.1991 23.3508 23.2742 23.2933C23.5392 23.1345 24.1002 23.2353 24.7643 23.2306H24.8722H24.8761H24.942H24.9476C25.9719 23.2798 27.3041 23.356 28.2467 23.4299H28.2689C28.7625 23.4688 29.1465 23.5093 29.3179 23.5418L29.3655 23.5522H29.3774C29.4012 23.5601 29.4139 23.5665 29.4155 23.5728C29.4173 23.5956 29.4162 23.6186 29.4123 23.6411Z" fill="#C27614"/>
<path d="M29.4035 23.5729C29.3813 23.5991 29.3591 23.6245 29.3353 23.6484C29.269 23.7175 29.1959 23.7798 29.1171 23.8342C28.8259 24.0358 28.4284 24.1613 27.8595 24.2566C27.8187 24.2632 27.7777 24.2677 27.7365 24.2701C26.6804 24.3455 23.2138 23.6936 23.1067 23.5189C23.1349 23.4287 23.1903 23.3493 23.2654 23.2918C23.5304 23.133 24.0914 23.2339 24.7555 23.2291H24.8634H24.8674C25.8988 23.2807 27.2652 23.3609 28.2292 23.4356H28.2522C28.7497 23.4737 29.1369 23.5102 29.3091 23.5396L29.3567 23.5499H29.3686C29.3948 23.5594 29.4083 23.5666 29.4035 23.5729Z" fill="#F2920C"/>
<path d="M28.0262 25.3772C28.0291 25.4631 28.0065 25.5479 27.9611 25.6209L27.9532 25.6344C27.9516 25.6366 27.9503 25.639 27.9492 25.6416C27.8144 25.8576 27.5208 26.0727 27.1685 26.2379C26.8216 26.4032 26.4477 26.5041 26.0648 26.5356H26.0465H26.0156C25.9648 26.5356 25.9156 26.5356 25.8672 26.5356H25.8577H25.8331C25.4911 26.5094 24.8016 26.2816 24.0542 25.9917C23.6122 25.821 23.152 25.6281 22.7339 25.4423C22.7394 25.3994 22.7458 25.3573 22.7521 25.3152C22.7521 25.3152 22.7521 25.3113 22.7521 25.3097C22.7791 25.1215 22.8061 24.9381 22.8315 24.7634C22.8656 24.5418 22.8997 24.3338 22.9354 24.1472C23.8289 24.333 25.3435 24.6673 26.4885 24.9412C26.667 24.9841 26.836 25.0262 26.9923 25.0651C27.4446 25.1787 27.7913 25.2739 27.9445 25.3327L27.9889 25.351C28.0127 25.3613 28.0254 25.37 28.0262 25.3772Z" fill="#C27614"/>
<path d="M28.0263 25.3772C27.9401 25.4519 27.845 25.5156 27.7431 25.5669C27.7277 25.5756 27.7118 25.5833 27.6955 25.59C27.6924 25.5922 27.6889 25.5938 27.6851 25.5947C27.3678 25.7408 26.9575 25.7972 26.3902 25.798C26.1096 25.7799 25.8316 25.732 25.5611 25.6551C25.4817 25.6344 25.3968 25.613 25.3103 25.5892C24.5343 25.378 23.5568 25.0437 22.834 24.7634C22.8681 24.5418 22.9022 24.3338 22.9379 24.1472H22.957C23.8512 24.3362 25.3476 24.6713 26.4839 24.9412L26.9393 25.0524C27.4154 25.1707 27.7867 25.2692 27.943 25.3248L27.9874 25.343C28.02 25.3621 28.0327 25.3716 28.0263 25.3772Z" fill="#F2920C"/>
<path d="M21.7455 26.3779C21.7455 26.3779 21.7455 26.3779 21.7455 26.383H21.7405L21.7455 26.3779Z" fill="#C27614"/>
<path d="M26.8692 26.9078C26.8557 27.146 26.5852 27.3707 26.2099 27.5382C25.9071 27.6706 25.5861 27.7568 25.2577 27.7939H25.2434C25.1863 27.8003 25.13 27.805 25.0736 27.8074C24.9943 27.8114 24.915 27.8122 24.8356 27.8074H24.8182C24.7384 27.8043 24.6589 27.7961 24.5801 27.7828C24.204 27.7201 23.3527 27.2976 22.5005 26.8196C22.5211 26.7164 22.541 26.6116 22.5608 26.502C22.5608 26.502 22.5608 26.4965 22.5608 26.4941C22.5608 26.4758 22.5679 26.4583 22.5711 26.4401C22.5923 26.3189 22.6129 26.1966 22.633 26.0732C22.6671 25.8612 22.6988 25.6476 22.7298 25.438C22.7353 25.3951 22.7417 25.3531 22.748 25.311C22.748 25.311 22.748 25.307 22.748 25.3054C23.5859 25.6024 24.6246 25.9796 25.4458 26.2924H25.4505C25.6711 26.3774 25.8766 26.4568 26.0591 26.5306C26.3543 26.6473 26.5876 26.7458 26.7256 26.8133H26.7304L26.7447 26.8212L26.7693 26.8331L26.7796 26.8387L26.8089 26.8554C26.8542 26.8855 26.8692 26.8998 26.8692 26.9078Z" fill="#C27614"/>
<path d="M26.8692 26.9082C26.4923 27.1584 26.0218 27.2139 25.2903 27.1306L25.1927 27.1187C24.8293 27.0726 24.0326 26.7447 23.2202 26.3612C23.0234 26.2691 22.8234 26.173 22.6338 26.0777C22.6679 25.8657 22.6996 25.6521 22.7306 25.4425C22.7361 25.3996 22.7425 25.3575 22.7488 25.3154C23.6446 25.633 24.7706 26.0475 25.6195 26.3723H25.6235L25.6338 26.3762C25.7798 26.431 25.9163 26.4842 26.0432 26.5351C26.3329 26.6494 26.5653 26.7447 26.709 26.8106L26.724 26.8177H26.732L26.7685 26.8352L26.7875 26.8439L26.8169 26.8606C26.8621 26.8884 26.8788 26.9027 26.8692 26.9082Z" fill="#F2920C"/>
<path d="M21.7455 26.3779C21.7455 26.3779 21.7455 26.3779 21.7455 26.383H21.7405L21.7455 26.3779Z" fill="#C27614"/>
<path d="M25.5203 28.2794C25.4814 28.4533 25.2981 28.597 25.0403 28.7034C24.728 28.8211 24.3979 28.8844 24.0643 28.8908H24.05C23.981 28.8908 23.9128 28.8908 23.8437 28.8908C23.5973 28.8857 23.353 28.8445 23.1185 28.7685C22.9098 28.6827 22.7115 28.5735 22.5274 28.443L22.4711 28.4065C22.3513 28.3271 22.2227 28.2365 22.0886 28.1381L22.1124 28.0912L22.1172 28.0825C22.1756 27.9629 22.2259 27.8396 22.2679 27.7133C22.2862 27.6617 22.3029 27.6093 22.3195 27.5545C22.3195 27.5545 22.3195 27.5505 22.3195 27.5481C22.3359 27.4952 22.3518 27.4404 22.3671 27.3838C22.3973 27.271 22.4266 27.1535 22.4536 27.0328C22.4695 26.9629 22.4846 26.8915 22.4996 26.8192C22.5203 26.716 22.5401 26.6112 22.5599 26.5016C22.5599 26.5016 22.5599 26.496 22.5599 26.4937C23.3804 26.9542 24.2492 27.452 24.8316 27.8046C25.0966 27.9634 25.3029 28.0976 25.4172 28.1818C25.4338 28.1937 25.4481 28.204 25.4608 28.2143L25.487 28.2357C25.5124 28.262 25.5203 28.2747 25.5203 28.2794Z" fill="#C27614"/>
<path d="M21.7455 26.3779C21.7455 26.3779 21.7455 26.3779 21.7455 26.383H21.7405L21.7455 26.3779Z" fill="#F2920C"/>
<path d="M25.5211 28.279C25.2196 28.414 24.8863 28.4378 24.4547 28.3632C24.2454 28.3247 24.0385 28.274 23.835 28.2115C23.5406 28.1234 22.9797 27.7899 22.3711 27.3841C22.4012 27.2714 22.4306 27.1538 22.4576 27.0332C22.4735 26.9633 22.4885 26.8918 22.5036 26.8196C22.5242 26.7163 22.5441 26.6115 22.5639 26.502C23.3764 26.9601 24.2365 27.4548 24.8189 27.8042C25.0918 27.9677 25.3037 28.1003 25.4219 28.1821L25.4656 28.2147L25.4917 28.2361C25.5211 28.2639 25.5298 28.279 25.5211 28.279Z" fill="#F2920C"/>
<path d="M23.7694 29.6372C23.7549 29.6693 23.7356 29.699 23.7123 29.7254C23.5425 29.9215 23.1354 30.0096 22.6808 29.9953C22.5147 29.9901 22.3492 29.9728 22.1857 29.9437H22.1745C21.8732 29.8933 21.5827 29.7921 21.3152 29.6444C21.1412 29.5301 20.9802 29.3969 20.8352 29.2474C20.982 29.1679 21.1248 29.0798 21.2597 28.9885L21.2668 28.9829C21.3335 28.9377 21.3986 28.8908 21.4604 28.8424C21.4842 28.8241 21.5073 28.8059 21.5295 28.7868C21.7007 28.6514 21.8523 28.493 21.9802 28.316C21.9952 28.2961 22.0087 28.2763 22.0214 28.2556C22.0436 28.2207 22.0651 28.1834 22.0865 28.1444L22.1103 28.0976L22.115 28.0889L22.5253 28.4494C23.133 28.9885 23.617 29.4339 23.7384 29.5872L23.7464 29.5983C23.7654 29.619 23.7731 29.6319 23.7694 29.6372Z" fill="#C27614"/>
<path d="M23.7692 29.6365C23.7156 29.6487 23.6612 29.6577 23.6066 29.6635C23.194 29.7072 22.7472 29.5675 22.1276 29.2379C21.914 29.1073 21.7145 28.9549 21.5325 28.783C21.7037 28.6476 21.8553 28.4891 21.9832 28.3121C21.9982 28.2923 22.0117 28.2724 22.0244 28.2518C22.0466 28.2168 22.0681 28.1795 22.0895 28.1406L22.1133 28.0938C22.2363 28.2009 22.3561 28.3065 22.4719 28.4114C23.1067 28.9672 23.6129 29.4341 23.7414 29.5857L23.7494 29.5968C23.7748 29.6215 23.7748 29.635 23.7692 29.6365Z" fill="#F2920C"/>
<path d="M22.602 30.4641C22.3449 30.9349 20.9048 30.7952 20.1581 30.2735C19.9732 30.1259 19.8053 29.9581 19.6575 29.7733C19.9034 29.6828 20.1764 29.5716 20.4509 29.4422C20.581 29.3802 20.7112 29.3143 20.8389 29.2437C20.9857 29.1643 21.1285 29.0761 21.2634 28.9848L21.2706 28.9792C21.6244 29.3453 21.945 29.6828 22.1822 29.9432C22.3231 30.0904 22.4556 30.2455 22.579 30.4077V30.4117C22.5829 30.4172 22.5869 30.4228 22.5901 30.4283C22.6012 30.4466 22.6051 30.4585 22.602 30.4641Z" fill="#C27614"/>
<path d="M22.6028 30.4644C22.1354 30.5311 21.6673 30.3627 20.9984 29.934C20.7995 29.7895 20.616 29.6247 20.4509 29.4425C20.5811 29.3805 20.7112 29.3146 20.8389 29.244C20.9857 29.1646 21.1285 29.0764 21.2634 28.9851C21.6141 29.348 21.9323 29.6823 22.1711 29.9379C22.3743 30.1579 22.5195 30.3238 22.5782 30.4048V30.4088C22.5821 30.4144 22.5861 30.4199 22.5893 30.4255C22.6067 30.4509 22.6107 30.4628 22.6028 30.4644Z" fill="#F2920C"/>
<path d="M27.954 20.8677C27.9468 21.103 27.8799 21.3325 27.7596 21.5347C27.6372 21.7583 27.4847 21.964 27.3065 22.1461L27.301 22.1517C27.2827 22.1715 27.2629 22.1914 27.243 22.2112C27.0507 22.4001 26.8411 22.5705 26.617 22.7202C26.5139 22.7902 26.406 22.8529 26.2941 22.9076C25.8684 23.1079 25.4052 23.2161 24.9349 23.2252H24.9293H24.8635H24.8595H24.7516C24.0875 23.23 23.5265 23.1307 23.2615 23.2879C23.1864 23.3454 23.131 23.4248 23.1028 23.515C23.0282 23.7181 22.9722 23.9275 22.9354 24.1407C22.8997 24.3273 22.8656 24.5377 22.8314 24.7569C22.8045 24.9316 22.7775 25.115 22.7521 25.3032C22.7521 25.3032 22.7521 25.3071 22.7521 25.3087C22.7458 25.3508 22.7394 25.3929 22.7339 25.4358C22.7029 25.6446 22.6712 25.8582 22.6371 26.071C22.6175 26.1943 22.5969 26.3166 22.5752 26.4378C22.5752 26.4561 22.5688 26.4736 22.5648 26.4918C22.5648 26.4918 22.5648 26.4974 22.5648 26.4998C22.545 26.6062 22.5252 26.711 22.5045 26.8174C22.4895 26.8896 22.4744 26.9611 22.4585 27.031C22.4316 27.1517 22.4022 27.2692 22.372 27.3819C22.3567 27.4386 22.3408 27.4934 22.3244 27.5463C22.3244 27.5463 22.3244 27.5511 22.3244 27.5527C22.3078 27.6074 22.2911 27.6598 22.2729 27.7115C22.2309 27.8377 22.1805 27.9611 22.1221 28.0807L22.1173 28.0894L22.0935 28.1363C22.0721 28.1752 22.0507 28.2157 22.0285 28.2474C22.0158 28.2681 22.0023 28.2879 21.9872 28.3078C21.8594 28.4848 21.7077 28.6432 21.5365 28.7786C21.5143 28.7977 21.4913 28.816 21.4675 28.8342C21.4056 28.8826 21.3406 28.9295 21.2739 28.9748L21.2668 28.9803C21.1319 29.0716 20.9891 29.1582 20.8423 29.2392C20.7145 29.3098 20.5844 29.3757 20.4543 29.4377C20.1805 29.5671 19.9076 29.6759 19.6608 29.7688C19.2189 29.9316 18.8674 30.03 18.7587 30.0594L18.7309 30.0673C18.619 30.0634 18.5286 29.7934 18.5286 29.4631C18.5286 29.1328 18.6206 28.858 18.7349 28.858C18.7927 28.8339 18.852 28.8137 18.9126 28.7977C19.0864 28.7437 19.368 28.6595 19.6814 28.5555C19.8108 28.5126 19.9457 28.4658 20.0782 28.4166C20.2369 28.3594 20.3956 28.2982 20.5415 28.2331C20.5444 28.2338 20.5474 28.2338 20.5503 28.2331C20.6383 28.1958 20.724 28.1537 20.8042 28.1172L20.8296 28.1037C21.0779 27.9798 21.2779 27.8488 21.3747 27.7186C21.3789 27.7142 21.3826 27.7095 21.3858 27.7043C21.4012 27.6813 21.4152 27.6575 21.4278 27.6328C21.4429 27.6027 21.4588 27.5677 21.4739 27.5296V27.5217C21.5195 27.3996 21.5579 27.275 21.5889 27.1485C21.5992 27.108 21.6095 27.0691 21.6191 27.0222C21.6195 27.021 21.6195 27.0196 21.6191 27.0183C21.6294 26.9754 21.6397 26.9309 21.6492 26.8849C21.6833 26.73 21.7159 26.5609 21.7484 26.3823C21.7484 26.3823 21.7484 26.3823 21.7484 26.3775C21.7658 26.2798 21.7833 26.1798 21.8 26.0774C21.8004 26.0765 21.8006 26.0755 21.8006 26.0746C21.8006 26.0736 21.8004 26.0727 21.8 26.0718C21.8222 25.9432 21.8436 25.8114 21.8658 25.6748C21.8968 25.4787 21.9277 25.2778 21.9594 25.0816L21.9666 25.0348C21.9983 24.8331 22.0301 24.633 22.0626 24.4393C22.0864 24.2932 22.111 24.151 22.1364 24.0145C22.1364 24.0145 22.1364 24.0105 22.1364 24.0089C22.253 23.3737 22.3744 22.8623 22.5228 22.7019C22.9735 22.2025 27.8127 20.5978 27.9222 20.7415C27.9446 20.7797 27.9556 20.8235 27.954 20.8677Z" fill="#C27614"/>
<path d="M27.0842 3.31891C27.0842 3.3745 27.0493 20.3571 27.0493 20.4699C27.0493 20.5827 26.9977 20.6287 26.9009 20.6287L20.6612 20.6549C20.5819 20.6549 20.5145 20.7343 20.4859 20.8137C20.4573 20.8931 19.9789 22.2533 19.5068 23.0878C19.0347 23.9223 18.3959 24.7807 18.2991 24.8561C18.2859 24.8665 18.2718 24.8758 18.2571 24.8839C18.2297 24.9 18.1984 24.9085 18.1666 24.9085C18.1348 24.9085 18.1036 24.9 18.0762 24.8839C18.0616 24.8759 18.0478 24.8666 18.0349 24.8561C17.9373 24.7767 17.2978 23.9231 16.8265 23.0878C16.3552 22.2525 15.8744 20.8899 15.8474 20.8137C15.8204 20.7375 15.749 20.6549 15.672 20.6549L9.43232 20.6287C9.33552 20.6287 9.28395 20.5803 9.28395 20.4699C9.28395 20.3595 9.24824 3.37608 9.24904 3.31891C9.24983 3.26174 9.27443 3.22998 9.32838 3.26016C9.38234 3.29033 11.9849 4.70449 12.5855 8.65954C13.1861 12.6146 12.4562 16.7062 12.4403 16.8833C12.4244 17.0603 12.545 17.0715 12.6339 17.0723C12.7228 17.0731 15.749 17.0723 15.9394 17.0723C16.1298 17.0723 16.1989 16.9929 16.2036 16.7912C16.2084 16.5895 15.672 6.80549 15.9656 4.30668C16.2592 1.80788 18.0627 0.25 18.1666 0.25C18.2706 0.25 20.082 1.80947 20.3724 4.30827C20.6628 6.80708 20.1273 16.5958 20.1344 16.7928C20.1415 16.9897 20.2074 17.0738 20.3986 17.0738C20.5898 17.0738 23.6161 17.0738 23.7049 17.0738C23.7938 17.0738 23.9128 17.0627 23.8977 16.8849C23.8827 16.707 23.1503 12.6209 23.7501 8.66669C24.35 4.71243 26.9565 3.29509 27.0073 3.2673C27.058 3.23951 27.0842 3.2673 27.0842 3.31891Z" fill="#C27614"/>
<path d="M18.0258 0.758057C18.0304 0.772004 18.0336 0.786365 18.0353 0.800934C18.0353 6.6995 18.0353 12.5981 18.0353 18.4966C18.0353 18.5046 18.0282 18.5125 18.0203 18.5308C17.4783 18.0678 16.9451 17.6057 16.4072 17.1428C16.425 17.107 16.4407 17.0702 16.454 17.0324C16.4869 16.9333 16.4988 16.8284 16.4889 16.7244C16.4833 16.6831 16.4889 16.6402 16.4889 16.5989C16.4833 16.4552 16.4786 16.3115 16.4722 16.1677C16.4635 15.9684 16.4532 15.7707 16.4437 15.5698C16.4341 15.3689 16.4254 15.1673 16.4159 14.9656C16.4064 14.7639 16.3976 14.5535 16.3881 14.347C16.3786 14.1406 16.3699 13.9111 16.3604 13.6936C16.3508 13.476 16.3413 13.2537 16.3326 13.0329C16.3231 12.7947 16.3143 12.5509 16.3048 12.3104L16.2905 11.9554C16.2826 11.7474 16.2731 11.5386 16.2651 11.3305C16.2588 11.14 16.2548 10.9502 16.2493 10.7596L16.235 10.2832C16.2302 10.1286 16.2257 9.97327 16.2215 9.81711L16.2072 9.26129C16.2025 9.05696 16.198 8.8529 16.1937 8.6491C16.1882 8.35848 16.1818 8.06866 16.1802 7.77567C16.1749 7.17221 16.1715 6.56822 16.1699 5.9637C16.1699 5.76916 16.1763 5.57383 16.1834 5.37929C16.1906 5.18476 16.1993 4.99499 16.212 4.80283C16.2349 4.30957 16.3172 3.82088 16.4572 3.34738C16.5788 2.95439 16.7383 2.57413 16.9332 2.21192C17.0861 1.9278 17.2595 1.65525 17.4521 1.39645C17.6067 1.18687 17.7773 0.989627 17.9623 0.806492C17.9753 0.793232 17.9891 0.780769 18.0036 0.769173C18.0107 0.764963 18.0182 0.761248 18.0258 0.758057Z" fill="#F2920C"/>
<path d="M19.935 17.1414C19.8152 17.2669 18.3696 18.5016 18.314 18.523C18.3106 18.51 18.3082 18.4967 18.3069 18.4833V0.755887C18.3458 0.750329 18.3585 0.776532 18.3759 0.793206C18.547 0.964141 18.706 1.14667 18.852 1.3395C19.117 1.6838 19.3459 2.05444 19.5351 2.44558C19.7781 2.9375 19.9499 3.46151 20.0453 4.00187C20.0771 4.1837 20.0969 4.36871 20.116 4.55292C20.1302 4.69347 20.135 4.8348 20.1445 4.97614C20.1659 5.27469 20.1723 5.57404 20.1731 5.87339C20.1731 6.42921 20.1818 6.98503 20.1818 7.54085C20.1818 7.86402 20.1739 8.18639 20.1691 8.50956C20.1691 8.71601 20.1596 8.92246 20.1548 9.1289C20.1506 9.31629 20.1458 9.50421 20.1406 9.69266C20.1366 9.85147 20.1318 10.0103 20.1271 10.1691C20.1223 10.3279 20.1183 10.4867 20.1128 10.6455C20.1088 10.7797 20.1041 10.9147 20.0993 11.0489C20.0898 11.318 20.081 11.5872 20.0715 11.8556L20.0572 12.224C20.0488 12.4606 20.0395 12.697 20.0295 12.9331C20.0205 13.1575 20.0112 13.3822 20.0017 13.6072C19.9922 13.8232 19.9834 14.0384 19.9739 14.2536L19.9454 14.8792C19.9366 15.0785 19.9271 15.2763 19.9184 15.4764L19.8898 16.0814C19.8803 16.2831 19.8755 16.4848 19.8605 16.6857C19.8515 16.7826 19.8574 16.8803 19.8779 16.9755C19.8906 17.0239 19.9144 17.0835 19.935 17.1414Z" fill="#C27614"/>
<path d="M26.7994 3.86987C26.7994 3.90243 26.8034 3.92387 26.8034 3.94928C26.8034 5.33882 26.8021 6.72864 26.7994 8.11871C26.7994 9.00564 26.7915 9.89336 26.7899 10.7811C26.7899 12.1357 26.7886 13.4906 26.786 14.8457C26.786 15.9812 26.7825 17.1172 26.7756 18.2537C26.7756 18.8508 26.7743 19.4482 26.7717 20.0458C26.7717 20.0768 26.7717 20.1077 26.7653 20.1538C26.7444 20.1412 26.7243 20.1274 26.705 20.1125L26.1845 19.6194C26.0068 19.4527 25.8283 19.2875 25.6505 19.12C25.5053 18.9834 25.3617 18.8444 25.2165 18.7079C25.2038 18.6978 25.1938 18.6848 25.1873 18.67C25.1808 18.6552 25.178 18.639 25.1792 18.6229C25.1796 18.6158 25.1796 18.6086 25.1792 18.6015C25.1792 17.3495 25.1792 16.0971 25.1792 14.8441C25.1792 14.5911 25.1792 14.3378 25.1792 14.0842C25.1792 13.7293 25.1879 13.3736 25.1927 13.0187C25.1969 12.7746 25.2017 12.5309 25.207 12.2874C25.2107 12.0883 25.2152 11.889 25.2205 11.6895L25.2348 11.1948C25.2385 11.0508 25.2432 10.9071 25.249 10.7636C25.253 10.6413 25.2578 10.5183 25.2625 10.3952C25.272 10.1824 25.2808 9.96879 25.2911 9.75997C25.299 9.58369 25.3078 9.40821 25.3189 9.23194C25.3316 9.02628 25.3435 8.81984 25.3609 8.61498C25.3863 8.32357 25.4085 8.03216 25.445 7.74155C25.5418 6.93689 25.7346 6.14674 26.0195 5.38805C26.2047 4.89421 26.4388 4.42019 26.7185 3.9731C26.7358 3.93209 26.7638 3.89646 26.7994 3.86987Z" fill="#C27614"/>
<path d="M9.586 20.1475C9.58025 20.1322 9.57548 20.1165 9.57172 20.1006C9.57172 20.08 9.57172 20.0586 9.57172 20.0379C9.57172 18.6277 9.57172 17.2173 9.57172 15.8065C9.57172 14.5102 9.56828 13.2132 9.5614 11.9158C9.5614 10.9582 9.5614 10.0009 9.5614 9.04381C9.55823 7.74267 9.55479 6.44152 9.55109 5.14038C9.55109 4.74601 9.54976 4.35111 9.54712 3.95569C9.54712 3.92869 9.54712 3.90249 9.54712 3.87628L9.56219 3.87231C9.57629 3.88883 9.58953 3.90605 9.60187 3.92393C9.84601 4.30831 10.0558 4.71352 10.2287 5.13482C10.4118 5.57907 10.5606 6.03671 10.6738 6.50372C10.7634 6.85876 10.8318 7.21883 10.8785 7.58201C10.9103 7.84483 10.9372 8.10765 10.9618 8.37048C10.9801 8.56422 10.9912 8.75876 11.0047 8.9525C11.015 9.1113 11.0237 9.26296 11.0317 9.4178C11.0417 9.6126 11.0512 9.80714 11.0602 10.0014C11.065 10.1102 11.0698 10.219 11.0737 10.3278C11.0824 10.539 11.0928 10.7494 11.0999 10.963C11.107 11.1766 11.111 11.3759 11.1158 11.5823L11.1301 12.2509C11.1301 12.4454 11.1404 12.6408 11.1435 12.8353C11.1491 13.2466 11.1554 13.6571 11.157 14.0684C11.1623 15.3039 11.1671 16.5397 11.1713 17.7757C11.1713 18.0481 11.1713 18.3196 11.1713 18.592C11.1728 18.6161 11.1688 18.6402 11.1596 18.6624C11.1504 18.6847 11.1362 18.7046 11.1182 18.7206C10.9357 18.889 10.7555 19.0597 10.5746 19.2296L10.1779 19.6075L9.65106 20.1006C9.63022 20.1174 9.6085 20.133 9.586 20.1475Z" fill="#F2920C"/>
<path d="M11.4386 18.2477C11.4386 18.2183 11.4386 18.189 11.4386 18.1588C11.4386 17.423 11.4386 16.6864 11.4386 15.949C11.4386 15.3667 11.4373 14.7844 11.4346 14.2022C11.4346 13.8305 11.4259 13.4589 11.4212 13.0905C11.4169 12.8444 11.4122 12.5985 11.4069 12.3529C11.4032 12.1443 11.3987 11.9355 11.3934 11.7264L11.3791 11.2325C11.3749 11.0864 11.3701 10.9403 11.3648 10.7942C11.3648 10.6687 11.3561 10.5441 11.3513 10.4186C11.3426 10.2011 11.3331 9.98269 11.3236 9.76513C11.3148 9.59203 11.3061 9.41814 11.295 9.24425C11.2823 9.02907 11.2696 8.81389 11.2529 8.5995C11.2363 8.38511 11.2212 8.16914 11.1966 7.95554C11.1688 7.71733 11.1363 7.47913 11.0974 7.24092C11.0311 6.83316 10.94 6.42983 10.8245 6.0332C10.6982 5.59363 10.539 5.16418 10.3484 4.74847C10.2865 4.59204 10.2072 4.44515 10.1358 4.29984C10.1267 4.28453 10.1231 4.26664 10.1254 4.24902C10.1394 4.25784 10.1526 4.26766 10.1651 4.2784C10.4275 4.53477 10.6677 4.81288 10.8832 5.10975C11.1028 5.41211 11.2994 5.73063 11.4711 6.06258C11.7115 6.52871 11.9058 7.01725 12.0512 7.52121C12.1619 7.89993 12.2472 8.28563 12.3066 8.67572C12.3424 8.9044 12.3693 9.13467 12.3963 9.36494C12.4233 9.59521 12.4447 9.80245 12.463 10.0216C12.4812 10.2408 12.4939 10.4377 12.5066 10.6465C12.5145 10.7831 12.5177 10.9196 12.5217 11.0562C12.5272 11.2373 12.5328 11.4183 12.536 11.5993C12.5407 11.8661 12.5455 12.1329 12.5455 12.3997C12.5455 12.5974 12.5391 12.7967 12.532 12.9921C12.5248 13.1874 12.5153 13.4089 12.5042 13.617C12.4931 13.825 12.4788 14.0473 12.4622 14.2625C12.4415 14.5277 12.4193 14.7937 12.3923 15.0565C12.359 15.3789 12.322 15.701 12.2813 16.0229C12.2455 16.3016 12.2019 16.5787 12.163 16.8558C12.1513 16.9415 12.1651 17.0288 12.2027 17.1067C12.2114 17.1229 12.2149 17.1414 12.213 17.1596C12.211 17.1779 12.2035 17.1952 12.1916 17.2091C11.9594 17.5426 11.7277 17.8761 11.4965 18.2096C11.4842 18.2254 11.4709 18.2405 11.4569 18.2549L11.4386 18.2477Z" fill="#C27614"/>
<path d="M26.2248 4.25862C26.2185 4.27702 26.211 4.29505 26.2026 4.31261C25.9733 4.75061 25.7806 5.20689 25.6266 5.67675C25.4639 6.16535 25.3403 6.6661 25.2568 7.17428C25.2116 7.45537 25.1775 7.73884 25.1426 8.02151C25.1235 8.18032 25.1124 8.33912 25.1013 8.49793C25.0854 8.71073 25.072 8.92352 25.0585 9.13315C25.0484 9.30148 25.0394 9.47035 25.0315 9.63974C25.0212 9.85492 25.0124 10.0709 25.0029 10.2861C24.9982 10.402 24.9934 10.5179 24.9894 10.6339C24.9839 10.7823 24.9799 10.93 24.9751 11.0785C24.9704 11.227 24.9656 11.385 24.9617 11.5375C24.9561 11.7439 24.9521 11.9504 24.9474 12.1568C24.9426 12.3378 24.9363 12.5189 24.9339 12.6999C24.9283 13.1088 24.9244 13.517 24.9196 13.9259C24.9196 14.176 24.9101 14.4269 24.9093 14.6778C24.9093 15.7561 24.9093 16.8342 24.9093 17.9119C24.9093 18 24.9093 18.089 24.9093 18.1771V18.2478C24.8704 18.2478 24.8617 18.2216 24.849 18.2025C24.7696 18.0929 24.6951 17.9818 24.6181 17.8714C24.4634 17.6483 24.3087 17.4244 24.1531 17.2021C24.1431 17.1918 24.1363 17.1788 24.1336 17.1646C24.1309 17.1505 24.1325 17.1359 24.1381 17.1226C24.1874 17.0043 24.1982 16.8735 24.169 16.7487C24.1309 16.4938 24.096 16.2389 24.0627 15.984C24.0349 15.7728 24.0095 15.5608 23.9833 15.3488C23.9698 15.2313 23.9603 15.1106 23.9492 14.9962C23.9326 14.8208 23.9151 14.6453 23.8992 14.4706C23.8913 14.3729 23.8865 14.2761 23.8794 14.1784C23.8675 14.0005 23.8548 13.8227 23.8429 13.6448C23.8429 13.6059 23.8429 13.5654 23.8381 13.5265C23.8334 13.3828 23.8278 13.2391 23.8239 13.0953C23.8183 12.9167 23.8127 12.738 23.8104 12.5594C23.8056 12.2902 23.8 12.021 23.8 11.7518C23.8 11.543 23.8064 11.3342 23.8143 11.1254C23.8207 10.9356 23.8286 10.7458 23.8421 10.556C23.8604 10.2924 23.8834 10.0296 23.9064 9.76202C23.9238 9.57304 23.9413 9.38406 23.9667 9.19508C24 8.93782 24.0357 8.68055 24.0801 8.42488C24.1399 8.08209 24.2213 7.74342 24.3237 7.4109C24.441 7.03067 24.585 6.6592 24.7546 6.29927C24.979 5.82092 25.2547 5.36833 25.5766 4.94942C25.7571 4.71347 25.9544 4.49083 26.1669 4.28323C26.1812 4.26973 26.1971 4.25782 26.2121 4.24512L26.2248 4.25862Z" fill="#F2920C"/>
<path d="M16.0064 20.5121C15.9496 20.4525 15.879 20.4078 15.8009 20.3819C15.7768 20.3738 15.7517 20.3692 15.7263 20.3684C15.4994 20.3628 15.2725 20.3556 15.0456 20.3556C14.068 20.3556 13.0905 20.3644 12.1098 20.3501C11.3671 20.339 10.6252 20.3501 9.88257 20.339C9.86273 20.339 9.84369 20.339 9.80322 20.3326C9.85638 20.281 9.89606 20.2405 9.93732 20.2016L10.3729 19.7911L10.9061 19.2909C10.999 19.2035 11.0934 19.117 11.183 19.0272C11.1985 19.0105 11.2175 18.9972 11.2386 18.9885C11.2597 18.9797 11.2824 18.9756 11.3052 18.9764C11.644 18.9764 11.9836 18.9764 12.3224 18.9764H17.6719H17.775C17.7693 18.9904 17.7621 19.0037 17.7536 19.0161C17.6885 19.0955 16.0556 20.4875 16.0064 20.5121Z" fill="#C27614"/>
<path d="M18.5764 18.9791H18.6558C20.7774 18.9791 22.8994 18.9791 25.0216 18.9791C25.0501 18.9782 25.0785 18.9833 25.1049 18.9942C25.1312 19.005 25.1551 19.0212 25.1748 19.0418C25.3573 19.2173 25.5429 19.3888 25.7302 19.5627L26.2602 20.0645L26.4832 20.2742C26.5022 20.2945 26.52 20.3159 26.5363 20.3385C26.4903 20.3385 26.4609 20.3424 26.4324 20.3424C25.7611 20.3424 25.0899 20.3337 24.4194 20.3424C23.2895 20.3631 22.1588 20.3464 21.029 20.3552C20.8901 20.3552 20.7513 20.3607 20.6124 20.3686C20.5289 20.3784 20.4509 20.4152 20.3902 20.4735C20.3363 20.5187 20.3363 20.5187 20.2823 20.4735L18.7748 19.176L18.6161 19.0394C18.6016 19.0261 18.5884 19.0114 18.5764 18.9958V18.9791Z" fill="#C27614"/>
<path d="M11.4968 18.7062C11.5071 18.6839 11.5185 18.6622 11.5309 18.641C11.8224 18.2218 12.1133 17.8026 12.4037 17.3833C12.4122 17.3661 12.4265 17.3525 12.4442 17.3451C12.4618 17.3376 12.4816 17.3368 12.4997 17.3428C12.5632 17.3556 12.6279 17.3612 12.6926 17.3595C13.7537 17.3595 14.8145 17.3595 15.8751 17.3595C15.9605 17.3578 16.0456 17.3477 16.129 17.3293C16.1452 17.3246 16.1623 17.3242 16.1787 17.3281C16.1951 17.332 16.2103 17.3401 16.2226 17.3515C16.4257 17.5286 16.6305 17.7033 16.8344 17.8788C17.1279 18.1313 17.4213 18.384 17.7143 18.6371C17.7334 18.653 17.7492 18.6712 17.7754 18.6966C17.757 18.7023 17.7381 18.7065 17.7191 18.7093C17.7008 18.7093 17.6826 18.7093 17.6635 18.7093H11.6047C11.573 18.7093 11.5413 18.7077 11.4968 18.7062Z" fill="#F2920C"/>
<path d="M24.8671 18.6968C24.7766 18.715 18.6536 18.7119 18.5933 18.6968C18.6131 18.6761 18.6282 18.6579 18.6464 18.642C18.9389 18.3884 19.2323 18.1357 19.5264 17.8837C19.7303 17.7082 19.935 17.5335 20.1381 17.3573C20.1509 17.3446 20.1669 17.3356 20.1843 17.3313C20.2018 17.327 20.2201 17.3274 20.2373 17.3326C20.3183 17.3507 20.401 17.3606 20.4841 17.362C21.5494 17.362 22.615 17.362 23.6809 17.362C23.7456 17.3631 23.8103 17.357 23.8737 17.3438C23.9189 17.3326 23.9372 17.3533 23.9578 17.3835L24.1919 17.7209L24.806 18.6039C24.8266 18.6317 24.8441 18.6611 24.8671 18.6968Z" fill="#F2920C"/>
<path d="M18.0109 24.3517C17.995 24.3326 17.9775 24.3144 17.9632 24.2945C17.6466 23.8645 17.3551 23.4165 17.0904 22.9526C16.8723 22.5583 16.6804 22.1501 16.516 21.7306C16.3978 21.4352 16.2867 21.1375 16.1724 20.8405C16.1645 20.8199 16.1581 20.7976 16.1494 20.7722L18.018 19.1643C18.0259 19.1777 18.0318 19.1921 18.0354 19.2072C18.037 19.2278 18.037 19.2485 18.0354 19.2691V24.2477C18.0354 24.281 18.0354 24.3144 18.0299 24.3477L18.0109 24.3517Z" fill="#F2920C"/>
<path d="M18.3108 24.3561V19.1584C18.3457 19.1839 18.3719 19.2005 18.3949 19.2204L18.8273 19.5928L19.9136 20.5273L20.1968 20.7735C20.1738 20.8402 20.1516 20.9077 20.1262 20.9744C19.9532 21.4325 19.7731 21.8875 19.5708 22.333C19.3666 22.7759 19.1278 23.202 18.8567 23.6074C18.7051 23.8353 18.5472 24.0592 18.3909 24.2839C18.3719 24.3117 18.3489 24.3371 18.3275 24.3633L18.3108 24.3561Z" fill="#C27614"/>
</g>
<defs>
<clipPath id="clip0_1_23672">
<rect width="35.96" height="33.5" fill="white" transform="translate(0.209717 0.25)"/>
</clipPath>
</defs>
</svg>
